<svg xmlns="http://www.w3.org/2000/svg" width="230.02" height="235.963" viewBox="0 0 230.02 235.963">
  <g id="Layer_1" data-name="Layer 1" transform="translate(50.488 -16.146) rotate(16)">
    <path id="Path_4" data-name="Path 4" d="M192.794,121.8A92.982,92.982,0,1,1,99.812,28.816c.928,0,2.52-.029,4.648.04v84.476h-9.3V38.365A83.617,83.617,0,0,0,99.772,205.42c47.287,0,83.5-40.171,83.617-83.617.087-38.769-28.608-68.791-57.523-79.3l3.7-8.731C161.746,45.643,192.794,79.28,192.794,121.8Z" transform="translate(0 -7.793)" fill="#fff"/>
    <path id="Path_5" data-name="Path 5" d="M81.332,18.877A82.216,82.216,0,0,0,71.24,21.83,83.369,83.369,0,0,0,47.6,35.093a84.365,84.365,0,0,0-7.583,6.845l-6.343-6.92a93.132,93.132,0,0,1,32.8-21.441A90.685,90.685,0,0,1,76.436,10.4Z" transform="translate(-11.362)" fill="#fff"/>
  </g>
</svg>
